<svg width="6px" height="11px" viewBox="0 0 6 11" version="1.1" xmlns="http://www.w3.org/2000/svg" xmlns:xlink="http://www.w3.org/1999/xlink">
  <!-- Generator: Sketch 48.2 (47327) - http://www.bohemiancoding.com/sketch -->
  <desc>Created with Sketch.</desc>
  <defs>
    <path
      d="M9.24021358,1.75978642 C9.32803455,1.84760738 9.38235294,1.96893091 9.38235294,2.10294118 L9.38235294,8.89705882 C9.38235294,9.16507936 9.16507936,9.38235294 8.89705882,9.38235294 C8.62903828,9.38235294 8.41176471,9.16507936 8.41176471,8.89705882 L8.41176471,2.58823529 L2.10294118,2.58823529 C1.83492064,2.58823529 1.61764706,2.37096172 1.61764706,2.10294118 C1.61764706,1.83492064 1.83492064,1.61764706 2.10294118,1.61764706 L8.89705882,1.61764706 C9.03106909,1.61764706 9.15239262,1.67196545 9.24021358,1.75978642 Z"
      id="path-1"></path>
  </defs>
  <g id="Page-1" stroke="none" stroke-width="1" fill="none" fill-rule="evenodd">
    <g id="article_pc" transform="translate(-77.000000, -192.000000)">
      <g id="ãƒ‘ãƒ³ããš" transform="translate(0.000000, 184.000000)">
        <g id="ã±ã‚“ããš" transform="translate(56.000000, 8.000000)">
          <g id="â”—ðŸŽ¨" transform="translate(16.000000, 0.000000)">
            <mask id="mask-2" fill="white">
              <use xlink:href="#path-1"></use>
            </mask>
            <use id="Mask" fill="#D8D8D8" transform="translate(5.500000, 5.500000) rotate(45.000000) translate(-5.500000, -5.500000) " xlink:href="#path-1"></use>
          </g>
        </g>
      </g>
    </g>
  </g>
</svg>
