<svg width="26px" height="23px" viewBox="0 0 26 23" version="1.1" xmlns="http://www.w3.org/2000/svg" xmlns:xlink="http://www.w3.org/1999/xlink">
  <!-- Generator: Sketch 48.2 (47327) - http://www.bohemiancoding.com/sketch -->
  <desc>Created with Sketch.</desc>
  <defs>
    <path d="M9.5,7.25 L9.5,8.75 L11.75,8.75 L11.75,11 L13.25,11 L13.25,8.75 L15.5,8.75 L15.5,7.25 L13.25,7.25 C13.25,5.75 13.25,5 13.25,5 C13.25,5 12.75,5 11.75,5 L11.75,7.25 L9.5,7.25 Z" id="path-1"></path>
  </defs>
  <g id="Page-1" stroke="none" stroke-width="1" fill="none" fill-rule="evenodd">
    <g id="top@2x" transform="translate(-9.000000, -1224.000000)">
      <g id="Group-8" transform="translate(0.000000, 122.000000)">
        <g id="Stacked-Group" transform="translate(0.000000, 1090.000000)">
          <g id="Group-10">
            <g id="Group-9">
              <g id="Group-5">
                <g id="icon/common/clinic" transform="translate(6.000000, 8.000000)">
                  <g id="Group" transform="translate(3.500000, 4.000000)">
                    <polygon id="Rectangle-2" stroke="#030303" fill="#FFFFFF" stroke-linejoin="round" points="5 2 20 2 20 22 15 22 15 14.5 10 14.5 10 22 5 22"></polygon>
                    <rect id="Rectangle-2" stroke="#030303" fill="#CAF3FF" stroke-linejoin="round" x="20" y="10" width="5" height="12"></rect>
                    <rect id="Rectangle-2" stroke="#030303" fill="#CAF3FF" stroke-linejoin="round" x="0" y="10" width="5" height="12"></rect>
                    <g id="Path-5" stroke-linecap="square">
                      <use fill="#CAF3FF" fill-rule="evenodd" xlink:href="#path-1"></use>
                      <path
                        stroke="#020202"
                        stroke-width="1"
                        d="M11.25,6.75 L11.25,4.5 L11.75,4.5 C13,4.5 13,4.5 13.25,4.5 L13.75,4.5 L13.75,5 C13.75,5.33819646 13.75,5.371388 13.75,6.75 L16,6.75 L16,9.25 L13.75,9.25 L13.75,11.5 L11.25,11.5 L11.25,9.25 L9,9.25 L9,6.75 L11.25,6.75 Z"></path>
                    </g>
                    <path d="M5,0.5 L20,0.5" id="Path-6" stroke="#030303" fill="#FFFFFF" stroke-linecap="round" stroke-linejoin="round"></path>
                    <path d="M20,8.5 L25,8.5" id="Path-6" stroke="#030303" fill="#FFFFFF" stroke-linecap="round" stroke-linejoin="round"></path>
                    <path d="M0,8.5 L5,8.5" id="Path-6" stroke="#030303" fill="#FFFFFF" stroke-linecap="round" stroke-linejoin="round"></path>
                  </g>
                </g>
              </g>
            </g>
          </g>
        </g>
      </g>
    </g>
  </g>
</svg>
