<svg width="12px" height="11px" viewBox="0 0 12 11" version="1.1" xmlns="http://www.w3.org/2000/svg" xmlns:xlink="http://www.w3.org/1999/xlink">
  <!-- Generator: Sketch 48.2 (47327) - http://www.bohemiancoding.com/sketch -->
  <desc>Created with Sketch.</desc>
  <defs>
    <path
      d="M0.749461514,6.08121172 C0.578011825,6.24643354 0.300036956,6.24643354 0.128587267,6.08121172 C-0.0428624223,5.91598991 -0.0428624223,5.64811243 0.128587267,5.48289061 L5.68956288,0.123916359 C5.86101257,-0.0413054531 6.13898743,-0.0413054531 6.31043712,0.123916359 L11.8714127,5.48289061 C12.0428624,5.64811243 12.0428624,5.91598991 11.8714127,6.08121172 C11.699963,6.24643354 11.4219882,6.24643354 11.2505385,6.08121172 L10.8292683,5.67524409 L10.8292683,6.91025628 L10.8292683,10.5769231 C10.8292683,10.810582 10.6327104,11 10.3902439,11 L7.46341463,11 C7.22054923,11 7.02382647,10.8099816 7.02439143,10.5759389 L7.02983308,8.32165636 C7.03115404,7.7744303 6.57404005,7.33333314 6.00663827,7.33333314 C5.44046356,7.33333314 4.97898922,7.77718232 4.97833028,8.32313262 L4.97560946,10.5774152 C4.97532767,10.8108818 4.77885245,11 4.53658537,11 L1.6097561,11 C1.36728962,11 1.17073171,10.810582 1.17073171,10.5769231 L1.17073171,5.67524409 L0.749461514,6.08121172 Z"
      id="path-1"></path>
  </defs>
  <g id="Page-1" stroke="none" stroke-width="1" fill="none" fill-rule="evenodd">
    <g id="article_pc" transform="translate(-56.000000, -192.000000)">
      <g id="パンくず" transform="translate(0.000000, 184.000000)">
        <g id="ぱんくず" transform="translate(56.000000, 8.000000)">
          <g id="lv1/color/dark">
            <mask id="mask-2" fill="white">
              <use xlink:href="#path-1"></use>
            </mask>
            <use id="Mask" fill="#23272F" xlink:href="#path-1"></use>
          </g>
        </g>
      </g>
    </g>
  </g>
</svg>
