<svg width="106px" height="30px" viewBox="0 0 106 30" version="1.1" xmlns="http://www.w3.org/2000/svg" xmlns:xlink="http://www.w3.org/1999/xlink">
  <!-- Generator: Sketch 48.2 (47327) - http://www.bohemiancoding.com/sketch -->
  <desc>Created with Sketch.</desc>
  <defs></defs>
  <g id="Symbols" stroke="none" stroke-width="1" fill="none" fill-rule="evenodd">
    <g id="lv2/bar/header_small" transform="translate(-133.000000, -5.000000)" fill="#FFFFFF">
      <g id="Group" transform="translate(133.000000, 5.000000)">
        <path
          d="M9.17513405,10.8002668 L12.0465497,10.8002668 L12.0465497,28.7999704 L9.17513405,28.7999704 L9.17513405,21.2855656 L2.87111396,21.2855656 L2.87111396,28.7999704 L0,28.7999704 L0,10.8002668 L2.87111396,10.8002668 L2.87111396,18.1151296 L9.17513405,18.1151296 L9.17513405,10.8002668 Z M22.0722166,10.8 L25.1207386,10.8 L30.9127494,28.8 L27.7372056,28.8 L26.4929356,24.5307483 L20.5859716,24.5307483 L19.3667438,28.8 L16.3435658,28.8 L22.0722166,10.8 Z M23.4824296,14.4074717 L21.5261136,21.3105009 L25.5527936,21.3105009 L23.4824296,14.4074717 Z M40.7996277,13.9457972 C39.7919017,13.9457972 39.0128751,14.286768 38.4622464,14.9693027 C38.2000566,15.3268774 37.9900634,15.770436 37.8334737,16.2987926 C37.6771856,16.8271492 37.5987399,17.4322983 37.5987399,18.1151296 L45.5124061,18.1397388 L45.5124061,21.2603634 L37.5733959,21.2603634 C37.5733959,22.8246784 37.8192931,23.9483997 38.3098807,24.630638 C38.8267174,25.3128762 39.6564319,25.6541435 40.7996277,25.6541435 L45.5124061,25.6541435 L45.5124061,28.7999704 L40.6729076,28.7999704 C39.5800982,28.7999704 38.7377116,28.6789998 38.1448429,28.4376517 C37.5607239,28.1968967 36.9892769,27.7886211 36.4302001,27.2146041 C35.7525496,26.4988618 35.2405404,25.5334695 34.8929654,24.3184273 C34.5290979,23.1285872 34.3468624,21.7306067 34.3468624,20.1247822 C34.3468624,16.9623515 34.8673197,14.6111351 35.9091394,13.0720223 C36.9506574,11.5575187 38.5639242,10.8002668 40.7489396,10.8002668 L45.5124061,10.8002668 L45.5124061,13.9457972 L40.7996277,13.9457972 Z M56.8955161,28.8 C55.6087043,28.8 54.6634332,28.6541238 54.0627199,28.3629643 C53.4532569,28.0884086 52.9156019,27.6178688 52.4500566,26.9522344 C51.9839079,26.3032038 51.6622804,25.5880545 51.4839672,24.8056005 C51.2724654,24.0065427 51.1668654,22.9080235 51.1668654,21.510043 L51.1668654,10.8002965 L54.0627199,10.8002965 L54.0627199,21.385218 L54.0627199,22.6337644 C54.0627199,23.0414469 54.0965119,23.40762 54.1640959,23.731987 C54.2319817,24.0729579 54.3508571,24.3730122 54.5201189,24.6306676 C54.7485167,25.0220429 55.0785922,25.3295096 55.5106472,25.5542539 C55.9430039,25.7294833 56.4888052,25.8166532 57.1489562,25.8166532 L60.5025115,25.8166532 L60.5025115,28.8 L56.8955161,28.8 Z M82.6352218,13.9457972 C81.6271941,13.9457972 80.8484693,14.286768 80.2978405,14.9693027 C80.035349,15.3268774 79.8253558,15.770436 79.6684644,16.2987926 C79.5118746,16.8271492 79.434334,17.4322983 79.434334,18.1151296 L87.3467934,18.1397388 L87.3467934,21.2603634 L79.4086883,21.2603634 C79.4086883,22.8246784 79.6536804,23.9483997 80.1454748,24.630638 C80.6620098,25.3128762 81.4917243,25.6541435 82.6352218,25.6541435 L87.3467934,25.6541435 L87.3467934,28.7999704 L82.5082,28.7999704 C81.4153906,28.7999704 80.5727023,28.6789998 79.980437,28.4376517 C79.3960163,28.1968967 78.8242675,27.7886211 78.266096,27.2146041 C77.5878421,26.4988618 77.0755311,25.5334695 76.7285595,24.3184273 C76.3643903,23.1285872 76.1821548,21.7306067 76.1821548,20.1247822 C76.1821548,16.9623515 76.7038189,14.6111351 77.7450352,13.0720223 C78.7859498,11.5575187 80.39982,10.8002668 82.5839303,10.8002668 L87.3467934,10.8002668 L87.3467934,13.9457972 L82.6352218,13.9457972 Z M93.1515667,10.8002372 L100.213493,10.8002372 C101.856932,10.8002372 103.063789,11.2411273 103.834367,12.1232041 C104.5793,13.0138793 104.951918,14.3783558 104.951918,16.2175229 C104.951918,17.5653956 104.71477,18.680815 104.240475,19.5625953 C103.77493,20.4532705 103.089133,21.027584 102.182783,21.2852394 L105.6,28.7999407 L102.373768,28.7999407 L99.3759342,21.7474773 L96.0226807,21.7474773 L96.0226807,28.7999407 L93.1515667,28.7999407 L93.1515667,10.8002372 Z M99.540972,14.0329375 L96.0226807,14.0329375 L96.0226807,18.5515426 L99.540972,18.5515426 C100.455468,18.5515426 101.103249,18.3686043 101.484013,18.0024313 C101.865078,17.6697623 102.055761,17.0910013 102.055761,16.2673343 C102.055761,15.468573 101.873828,14.890405 101.509658,14.5325339 C101.323199,14.357601 101.073983,14.232776 100.7602,14.1577624 C100.44702,14.0747434 100.040309,14.0329375 99.540972,14.0329375 Z"
          id="Combined-Shape"></path>
        <path
          d="M88.4571926,0 C75.3910568,0 64.8,12.4125 64.8,27.7233 C64.8,28.9809 65.490741,30 66.3425024,30 C67.1951787,30 67.8853097,28.9809 67.8853097,27.7233 C67.8853097,13.0203 77.6535767,0.9975 90,0.0654 C89.4888822,0.0267 88.9753246,0 88.4571926,0"
          id="Fill-7"></path>
      </g>
    </g>
  </g>
</svg>
