<svg width="120px" height="35px" viewBox="0 0 120 35" version="1.1" xmlns="http://www.w3.org/2000/svg" xmlns:xlink="http://www.w3.org/1999/xlink">
  <!-- Generator: Sketch 48.2 (47327) - http://www.bohemiancoding.com/sketch -->
  <desc>Created with Sketch.</desc>
  <defs></defs>
  <g id="Page-1" stroke="none" stroke-width="1" fill="none" fill-rule="evenodd">
    <g id="top_pc" transform="translate(-55.000000, -90.000000)">
      <g id="ヘッダー" transform="translate(0.000000, 71.000000)">
        <g id="Group-3">
          <g id="Group" transform="translate(55.000000, 19.000000)">
            <path
              d="M10.4262887,12.2730305 L13.6892611,12.2730305 L13.6892611,32.727239 L10.4262887,32.727239 L10.4262887,24.1881427 L3.2626295,24.1881427 L3.2626295,32.727239 L0,32.727239 L0,12.2730305 L3.2626295,12.2730305 L3.2626295,20.5853745 L10.4262887,20.5853745 L10.4262887,12.2730305 Z M25.0820643,12.2727273 L28.5462939,12.2727273 L35.1281243,32.7272727 L31.5195519,32.7272727 L30.1056086,27.8758504 L23.3931495,27.8758504 L22.0076634,32.7272727 L18.5722339,32.7272727 L25.0820643,12.2727273 Z M26.6845791,16.3721269 L24.4614927,24.2164783 L29.0372654,24.2164783 L26.6845791,16.3721269 Z M46.3632132,15.8474968 C45.2180701,15.8474968 44.3328127,16.2349637 43.7070982,17.0105713 C43.4091553,17.4169061 43.1705266,17.92095 42.9925837,18.5213552 C42.8149837,19.1217604 42.7258408,19.8094299 42.7258408,20.5853745 L51.7186433,20.6133395 L51.7186433,24.1595038 L42.6970408,24.1595038 C42.6970408,25.9371345 42.9764694,27.2140906 43.5339553,27.9893613 C44.1212697,28.764632 45.0641272,29.1524358 46.3632132,29.1524358 L51.7186433,29.1524358 L51.7186433,32.727239 L46.2192132,32.727239 C44.9773843,32.727239 44.0201269,32.5897725 43.3464124,32.3155134 C42.6826408,32.041928 42.0332692,31.5779786 41.3979547,30.9256865 C40.6278973,30.1123429 40.0460686,29.0153063 39.651097,27.6345764 C39.2376112,26.2824854 39.0305254,24.6938712 39.0305254,22.8690706 C39.0305254,19.2753995 39.6219542,16.6035626 40.8058402,14.8545708 C41.9893834,13.1335439 43.8226411,12.2730305 46.3056132,12.2730305 L51.7186433,12.2730305 L51.7186433,15.8474968 L46.3632132,15.8474968 Z M64.6539956,32.7272727 C63.1917095,32.7272727 62.1175377,32.5615043 61.434909,32.2306413 C60.7423374,31.9186462 60.1313658,31.3839419 59.602337,30.6275391 C59.0726226,29.8900043 58.7071368,29.0773346 58.5045081,28.1881824 C58.2641652,27.2801621 58.1441652,26.0318449 58.1441652,24.4432307 L58.1441652,12.2730642 L61.434909,12.2730642 L61.434909,24.3013841 L61.434909,25.7201868 C61.434909,26.1834624 61.473309,26.5995681 61.550109,26.9681671 C61.6272519,27.355634 61.7623376,27.6966048 61.9546806,27.989395 C62.2142235,28.4341396 62.5893093,28.7835337 63.0802809,29.0389249 C63.5715953,29.2380492 64.1918241,29.3371059 64.9419957,29.3371059 L68.7528539,29.3371059 L68.7528539,32.7272727 L64.6539956,32.7272727 Z M93.9036611,15.8474968 C92.7581751,15.8474968 91.8732605,16.2349637 91.2475461,17.0105713 C90.9492603,17.4169061 90.7106316,17.92095 90.5323459,18.5213552 C90.354403,19.1217604 90.2662886,19.8094299 90.2662886,20.5853745 L99.2577198,20.6133395 L99.2577198,24.1595038 L90.2371458,24.1595038 C90.2371458,25.9371345 90.5155459,27.2140906 91.0744032,27.9893613 C91.6613748,28.764632 92.6042322,29.1524358 93.9036611,29.1524358 L99.2577198,29.1524358 L99.2577198,32.727239 L93.7593182,32.727239 C92.5174893,32.727239 91.559889,32.5897725 90.8868603,32.3155134 C90.2227458,32.041928 89.5730313,31.5779786 88.9387454,30.9256865 C88.1680023,30.1123429 87.5858307,29.0153063 87.1915449,27.6345764 C86.7777162,26.2824854 86.5706304,24.6938712 86.5706304,22.8690706 C86.5706304,19.2753995 87.1634306,16.6035626 88.346631,14.8545708 C89.5294884,13.1335439 91.3634318,12.2730305 93.8453754,12.2730305 L99.2577198,12.2730305 L99.2577198,15.8474968 L93.9036611,15.8474968 Z M105.854053,12.2729968 L113.87897,12.2729968 C115.746513,12.2729968 117.117942,12.7740083 117.993599,13.7763683 C118.840114,14.7884992 119.263543,16.3390406 119.263543,18.4290033 C119.263543,19.9606768 118.994057,21.2281989 118.455085,22.230222 C117.926057,23.2423529 117.146742,23.8949819 116.116799,24.1877721 L120,32.7272053 L116.333828,32.7272053 L112.927198,24.7130424 L109.116683,24.7130424 L109.116683,32.7272053 L105.854053,32.7272053 L105.854053,12.2729968 Z M113.114741,15.9465198 L109.116683,15.9465198 L109.116683,21.0812984 L113.114741,21.0812984 C114.153941,21.0812984 114.890056,20.873414 115.322742,20.4573083 C115.75577,20.0792754 115.972456,19.4215924 115.972456,18.4856072 C115.972456,17.5779239 115.765713,16.9209148 115.351884,16.5142431 C115.139999,16.3154557 114.856799,16.1736091 114.500227,16.0883664 C114.144341,15.9940266 113.68217,15.9465198 113.114741,15.9465198 Z"
              id="Combined-Shape"
              fill="#68C5DB"></path>
            <path
              d="M100.519537,0 C85.6716555,0 73.6363636,14.1051136 73.6363636,31.50375 C73.6363636,32.9328409 74.4212966,34.0909091 75.3892073,34.0909091 C76.3581576,34.0909091 77.1423974,32.9328409 77.1423974,31.50375 C77.1423974,14.7957955 88.2427007,1.13352273 102.272727,0.0743181818 C101.691912,0.0303409091 101.108323,0 100.519537,0"
              id="Fill-7"
              fill="#888889"></path>
          </g>
        </g>
      </g>
    </g>
  </g>
</svg>
