<svg width="21px" height="19px" viewBox="0 0 21 19" version="1.1" xmlns="http://www.w3.org/2000/svg" xmlns:xlink="http://www.w3.org/1999/xlink">
  <!-- Generator: Sketch 48.2 (47327) - http://www.bohemiancoding.com/sketch -->
  <desc>Created with Sketch.</desc>
  <defs></defs>
  <g id="Page-1" stroke="none" stroke-width="1" fill="none" fill-rule="evenodd">
    <path
      d="M7.70777405,1 C3.36744966,3.56711409 1,7.21812081 1,12.295302 C1,15.9463087 2.46556408,18 4.94574944,18 C6.91862416,18 8.27145254,16.7449664 8.27145254,14.5201342 C8.27145254,12.466443 6.69315276,11.3255034 4.94574944,11.3255034 C4.72027804,11.3255034 4.5511745,11.3255034 4.38207095,11.3825503 C4.4384388,7.73154362 6.07310642,5.56375839 9.17333813,3.45302013 L7.70777405,1 Z"
      id="“"
      stroke="#4A4A4A"
      fill="#4A4A4A"></path>
    <path
      d="M18.7558725,1 C14.4719159,3.56711409 12.1044663,7.21812081 12.1044663,12.295302 C12.1044663,15.9463087 13.5136625,18 15.9938479,18 C17.9667226,18 19.3759188,16.7449664 19.3759188,14.5201342 C19.3759188,12.466443 17.7412512,11.3255034 15.9938479,11.3255034 C15.8247443,11.3255034 15.6556408,11.3255034 15.4865372,11.3825503 C15.5429051,7.73154362 17.1775727,5.56375839 20.2214366,3.45302013 L18.7558725,1 Z"
      id="“"
      stroke="#4A4A4A"
      fill="#4A4A4A"></path>
  </g>
</svg>
