<svg width="21px" height="19px" viewBox="0 0 21 19" version="1.1" xmlns="http://www.w3.org/2000/svg" xmlns:xlink="http://www.w3.org/1999/xlink">
  <!-- Generator: Sketch 48.2 (47327) - http://www.bohemiancoding.com/sketch -->
  <desc>Created with Sketch.</desc>
  <defs></defs>
  <g id="Page-1" stroke="none" stroke-width="1" fill="none" fill-rule="evenodd">
    <path
      d="M13.6644295,1 C18.057047,3.56711409 20.4530201,7.21812081 20.4530201,12.295302 C20.4530201,15.9463087 18.9697987,18 16.4597315,18 C14.4630872,18 13.0939597,16.7449664 13.0939597,14.5201342 C13.0939597,12.466443 14.6912752,11.3255034 16.4597315,11.3255034 C16.6879195,11.3255034 16.8590604,11.3255034 17.0302013,11.3825503 C16.9731544,7.73154362 15.3187919,5.56375839 12.1812081,3.45302013 L13.6644295,1 Z"
      id="“"
      stroke="#4A4A4A"
      fill="#4A4A4A"></path>
    <path
      d="M2.48322148,1 C6.81879195,3.56711409 9.2147651,7.21812081 9.2147651,12.295302 C9.2147651,15.9463087 7.7885906,18 5.27852349,18 C3.28187919,18 1.8557047,16.7449664 1.8557047,14.5201342 C1.8557047,12.466443 3.51006711,11.3255034 5.27852349,11.3255034 C5.44966443,11.3255034 5.62080537,11.3255034 5.79194631,11.3825503 C5.73489933,7.73154362 4.08053691,5.56375839 1,3.45302013 L2.48322148,1 Z"
      id="“"
      stroke="#4A4A4A"
      fill="#4A4A4A"></path>
  </g>
</svg>
